<svg xmlns="http://www.w3.org/2000/svg" width="599.776" height="270.9" viewBox="0 0 599.776 270.9"><defs><style>.a{fill:#eee;}.b{fill:#d2f3fd;}.c,.h,.j,.k,.n,.o,.p,.r{fill:none;}.c,.k{stroke:#707070;}.d{fill:#2ccafa;}.e{fill:#ff727f;}.f{fill:#34ccfa;}.g{fill:#f4da26;}.h{stroke:#3b3b3b;}.i{fill:#002a54;}.j{stroke:#585858;}.k,.p{stroke-width:2px;}.l{fill:#cdedf7;}.m,.s{fill:#61c3e2;}.o,.p{stroke:#61c3e2;}.q,.s{stroke:none;}</style></defs><g transform="translate(-400.967 -99.225)"><g transform="translate(-38.403 2)"><path class="a" d="M588.984,403.219c22.937-5.043,50.462-4.529,76.691-2.554s9.92,5.108-30.172,7.151S566.048,408.262,588.984,403.219Z" transform="matrix(0.999, 0.035, -0.035, 0.999, 62.455, -66.851)"/><circle class="b" cx="72" cy="72" r="72" transform="translate(679 179)"/><g class="c" transform="translate(673 191)"><circle class="q" cx="72" cy="72" r="72"/><circle class="r" cx="72" cy="72" r="71.5"/></g><g transform="translate(350 -121)"><path class="d" d="M278.444,457.228l-6.762-.183a3.448,3.448,0,0,0,0,2.824c.627,1.8,4.392,11.373,5.1,12s4.324,1,2.824-2.275S278.444,457.228,278.444,457.228Z" transform="translate(0 -1)"/><path class="e" d="M272.029,392.589s.516,5.6,0,7.52-2.8,8.11-1.032,9.437,7.962,1.475,8.036-1.327.664-6.783-1.4-8.847-1.106-6.193-1.106-6.193Z" transform="translate(2 -2)"/><path class="f" d="M326.753,349.118c-4.984-2.617-23.452-5.1-34.949,3.935S272.916,374.131,273.19,391.1c9.581,1.095,6.022,0,6.022,0s8.76-30.932,35.86-30.111c-6.843,7.391-16.7,19.846-19.162,35.723,3.991-.111,9.723,1.164,15.393,1.744,7.582.775,14.718.993,14.718.993l11.771-24.089s27.647,6.843,32.848-1.642,3.559-23.541,3.011-31.48c-7.117-.274-8.4,0-8.4,0s1.869,16.721-1.994,21.954c-1.642,2.224-5.493,5.255-12.584,1.869C342.965,360.262,329.843,350.336,326.753,349.118Z"/><path class="g" d="M326.015,348.651s-2.916,44.381-3.4,45.353c1.835-1.657,17.488-36.052,17.488-36.052Z"/><path class="d" d="M278.06,456.482l-6.379.563a3.448,3.448,0,0,0,0,2.824c.627,1.8,4.392,11.373,5.1,12s3.395,1.008,2.824-2.275S278.06,456.482,278.06,456.482Z" transform="translate(-175.194 310.738) rotate(-41)"/><path class="c" d="M325.663,355.1s7.85,4.485,8.348,5.482"/><path class="c" d="M325.04,363.7s2.741.125,3.738,1.246"/><path class="c" d="M324.417,372.916s6.728.125,7.227,1.246"/><path class="h" d="M304.525,381.786c-.448-.472,6.273,1.415,6.273,1.415s-.6,8.174-4.481,9.275S304.973,382.257,304.525,381.786Z" transform="matrix(0.998, 0.07, -0.07, 0.998, 32.754, -22.504)"/><path class="i" d="M295.931,397.506s1.622,31.851,17.225,46.359c-1.095,7.117-26.005,11.771-34.765,12.318,0,5.2.065,5.616.065,5.616s45.637,1.758,48.513-5.616S319.4,424.37,319.4,419.769v-3.546s10.83.671,18.306,12.172a38.1,38.1,0,0,1-3.834,45.238c5.367,4.84,4.284,4.333,4.685,4.037s21.863-19.108,20.617-41.464-29.482-35.977-33.124-35.977S295.931,397.506,295.931,397.506Z" transform="translate(0 -1)"/><path class="i" d="M352.582,332.346c.776-.057,6.561-3.006,5.143-5.671s-4.253-1.815-2.212-3.516,5.558-2.552,3.516-5.558-4.991-6.579-7.826-5.615.454-7.217-6.579-6.139-7.032,6.267-8.507,6.139-2.836-6.366-6.919-5.118-7.146,6.012-7.146,11.8-7.032,1.928-6.068,6.3,5.161,6.635,5.217,9.3-1.645,4.877,1.248,6.862,4.65,2.722,5.841,1.815,4.367-6.749,2.268-9.3,4.707,2.524,7.032-1.29-.907-5.2,4.31-5.671,6.352-.922,7.826,1.177S352.582,332.346,352.582,332.346Z"/><path class="e" d="M350.409,319.416c-3.119-2.439-1.361,6.579-7.94,6.465s-6.919-1.872-6.976-1.645,1.077,5.785-2.1,7.543-4.424-3.289-5.5-3.4-4.367,1.588-2.722,3.856,4.027,1.134,4.253,3.856-1.815,5.047-2.325,6.011-.737,7.316-.737,7.316l13.214,8.96V345.05s8.166,2.892,10.832.4S353.528,321.855,350.409,319.416Z"/><path class="e" d="M372.98,342.119c-.34-.585-1.474-5.292-.907-7.334s2.779-4.083,2.268-5.9.284-6.522-1.815-6.862-4.48,3.4-5.047,5.614.17,3.573-.907,4.2S364.19,331.1,363,330.7s-1.645,1.134-1.475,1.871,2.268,3.4,4.367,4.707,1.645,4.4,1.588,4.838S372.98,342.119,372.98,342.119Z"/><path class="c" d="M273.183,388.416"/><path class="j" d="M273.183,389.013l3.99.357"/><path class="c" d="M373.927,346.1l-5.792-.422"/><path class="c" d="M323.635,382.385h3.606"/></g><path class="k" d="M745.339,246.32c0-3.49,6.376-42.117,6.376-42.117l.862,42.951Z" transform="translate(58.822 -128.465) rotate(11)"/><path class="k" d="M730.8,266.624,704.941,281.15l29.024-9.587Z" transform="translate(13.214 -5)"/><path class="k" d="M789.164,290.831l10.173,6.583" transform="translate(-30.652 407.53) rotate(-30)"/><path class="k" d="M789.164,290.831l10.173,6.583" transform="translate(602.843 -511.78) rotate(60)"/><path class="k" d="M789.164,290.831l10.173,6.583" transform="translate(604.843 -630.78) rotate(60)"/><path class="k" d="M789.164,290.831l10.173,6.583" transform="translate(-140.652 405.53) rotate(-30)"/></g><path class="l" d="M189.971,217.227H347.9c16.117,0,17.53,21.787,0,21.787H245.918c-11.865,0-10.179,18.767,0,18.767h49.573c15.405,0,16.887,21.954,0,21.954H157.926c-15.592,0-15.671-21.954,0-21.954h40.367c12.055,0,13.152-17.8,0-18.767s-57.181,0-73.835,0-16.654-21.787,0-21.787Z" transform="translate(289 -62)"/><path class="l" d="M173.164,217.227h123.9c12.645,0,13.753,17.092,0,17.092H217.057c-9.309,0-7.986,14.723,0,14.723h38.892c12.086,0,13.248,17.224,0,17.224H148.023c-12.233,0-12.294-17.224,0-17.224h31.669c9.458,0,10.318-13.965,0-14.723s-44.861,0-57.926,0-13.066-17.092,0-17.092Z" transform="translate(693.776 58.734)"/><path class="m" d="M10,0A10,10,0,1,1,0,10,10,10,0,0,1,10,0Z" transform="translate(460 208)"/><path class="m" d="M7,0A7,7,0,1,1,0,7,7,7,0,0,1,7,0Z" transform="translate(533 117)"/><path class="m" d="M7,0A7,7,0,1,1,0,7,7,7,0,0,1,7,0Z" transform="translate(915 162)"/><g class="n" transform="translate(615.283 144.283)"><path class="q" d="M8.717,0A8.717,8.717,0,1,1,0,8.717,8.717,8.717,0,0,1,8.717,0Z"/><path class="s" d="M 8.716888427734375 0.9999980926513672 C 4.46177864074707 0.9999980926513672 0.9999980926513672 4.46177864074707 0.9999980926513672 8.716888427734375 C 0.9999980926513672 12.97199821472168 4.46177864074707 16.43377876281738 8.716888427734375 16.43377876281738 C 12.97199821472168 16.43377876281738 16.43377876281738 12.97199821472168 16.43377876281738 8.716888427734375 C 16.43377876281738 4.46177864074707 12.97199821472168 0.9999980926513672 8.716888427734375 0.9999980926513672 M 8.716888427734375 -1.9073486328125e-06 C 13.53109836578369 -1.9073486328125e-06 17.43377876281738 3.902678489685059 17.43377876281738 8.716888427734375 C 17.43377876281738 13.53109836578369 13.53109836578369 17.43377876281738 8.716888427734375 17.43377876281738 C 3.902678489685059 17.43377876281738 -1.9073486328125e-06 13.53109836578369 -1.9073486328125e-06 8.716888427734375 C -1.9073486328125e-06 3.902678489685059 3.902678489685059 -1.9073486328125e-06 8.716888427734375 -1.9073486328125e-06 Z"/></g><g class="n" transform="translate(873.283 316.283)"><path class="q" d="M8.717,0A8.717,8.717,0,1,1,0,8.717,8.717,8.717,0,0,1,8.717,0Z"/><path class="s" d="M 8.716888427734375 0.9999980926513672 C 4.46177864074707 0.9999980926513672 0.9999980926513672 4.46177864074707 0.9999980926513672 8.716888427734375 C 0.9999980926513672 12.97199821472168 4.46177864074707 16.43377876281738 8.716888427734375 16.43377876281738 C 12.97199821472168 16.43377876281738 16.43377876281738 12.97199821472168 16.43377876281738 8.716888427734375 C 16.43377876281738 4.46177864074707 12.97199821472168 0.9999980926513672 8.716888427734375 0.9999980926513672 M 8.716888427734375 -1.9073486328125e-06 C 13.53109836578369 -1.9073486328125e-06 17.43377876281738 3.902678489685059 17.43377876281738 8.716888427734375 C 17.43377876281738 13.53109836578369 13.53109836578369 17.43377876281738 8.716888427734375 17.43377876281738 C 3.902678489685059 17.43377876281738 -1.9073486328125e-06 13.53109836578369 -1.9073486328125e-06 8.716888427734375 C -1.9073486328125e-06 3.902678489685059 3.902678489685059 -1.9073486328125e-06 8.716888427734375 -1.9073486328125e-06 Z"/></g><path class="m" d="M3.775,0A3.775,3.775,0,1,1,0,3.775,3.775,3.775,0,0,1,3.775,0Z" transform="translate(517.225 164.225)"/><path class="m" d="M3.775,0A3.775,3.775,0,1,1,0,3.775,3.775,3.775,0,0,1,3.775,0Z" transform="translate(851.225 252.225)"/><path class="m" d="M3.775,0A3.775,3.775,0,1,1,0,3.775,3.775,3.775,0,0,1,3.775,0Z" transform="translate(911.225 272.225)"/><path class="m" d="M1.908,0A1.91,1.91,0,1,1,0,1.91,1.909,1.909,0,0,1,1.908,0Z" transform="translate(608.225 99.225)"/><g transform="translate(217 80)"><line class="o" x1="26" y2="26" transform="translate(589.5 89.5)"/><line class="o" x2="26" y2="26" transform="translate(589.5 89.5)"/></g><g transform="translate(188.5 222.5)"><line class="p" x1="13" y2="13" transform="translate(589.5 89.5)"/><line class="p" x2="13" y2="13" transform="translate(589.5 89.5)"/></g><g transform="translate(53.5 35.5)"><line class="o" x1="13" y2="13" transform="translate(589.5 89.5)"/><line class="o" x2="13" y2="13" transform="translate(589.5 89.5)"/></g></g></svg>