<svg
          xmlns="http://www.w3.org/2000/svg"
          xmlns:xlink="http://www.w3.org/1999/xlink"
          width="360"
          height="176"
          class="wd-graphic wd-graphic-empty-state-window-gray"
          focusable="false"
          role="presentation"
          viewBox="0 0 360 176"
        >
          <defs>
            <path
              id="wd-graphic-empty-state-window-gray-path-1"
              d="M65.5 2C51.677 2 40.325 12.584 39.108 26.09a1 1 0 0 1-.996.91H11a1 1 0 1 1 0-2h26.213C38.939 10.91 50.945 0 65.5 0c11.476 0 21.366 6.783 25.883 16.555A11.992 11.992 0 0 1 95 16c5.592 0 10.289 3.824 11.622 9H141a1 1 0 0 1 0 2H105.779a1 1 0 0 1-.944-.82C103.98 21.527 99.901 18 95 18a9.978 9.978 0 0 0-7.728 3.653 1 1 0 0 1-1.544-1.27 12.047 12.047 0 0 1 3.803-3.067C85.313 8.268 76.138 2 65.5 2zM1 25a1 1 0 1 0 0 2h6a1 1 0 1 0 0-2H1z"
            ></path>
            <path
              id="wd-graphic-empty-state-window-gray-path-3"
              d="M60.5 0c-9.067 0-16.609 6.521-18.194 15.13A11.009 11.009 0 0 0 33.182 24H13a1 1 0 1 0 0 2h21.05a1 1 0 0 0 .995-.901 9.003 9.003 0 0 1 8.21-8.069 1 1 0 0 0 .908-.857C45.293 8.163 52.177 2 60.5 2c6.144 0 11.506 3.358 14.346 8.343a15.164 15.164 0 0 0-3.275 1.101 1 1 0 1 0 .858 1.806 12.498 12.498 0 0 1 3.927-1.155c.04 0 .08-.002.12-.007.51-.06.999-.088 1.524-.088 3.687 0 7.015 1.535 9.38 4A12.956 12.956 0 0 1 91 25a1 1 0 0 0 1 1h20a1 1 0 0 0 0-2H92.967a14.938 14.938 0 0 0-3.734-8.941 14.963 14.963 0 0 0-12.278-5.022C73.884 4.077 67.669 0 60.5 0zM115 25a1 1 0 0 1 1-1h4a1 1 0 0 1 0 2h-4a1 1 0 0 1-1-1zM1 24a1 1 0 1 0 0 2h8a1 1 0 1 0 0-2H1z"
            ></path>
            <path
              id="wd-graphic-empty-state-window-gray-path-5"
              d="M26.5 0a9.49 9.49 0 0 0-7.75 4.004A8.002 8.002 0 0 0 11.063 11H1a1 1 0 1 0 0 2h11a1 1 0 0 0 1-1 6.002 6.002 0 0 1 4.603-5.836 9.454 9.454 0 0 0-.564 2.468 1 1 0 0 0 1.992.18A7.494 7.494 0 0 1 26.5 2a7.504 7.504 0 0 1 7.223 5.474 1 1 0 0 0 .723.701 6.013 6.013 0 0 1 4.306 4.11 1 1 0 0 0 .958.715H60a1 1 0 1 0 0-2H40.418a8.02 8.02 0 0 0-4.938-4.608A9.504 9.504 0 0 0 26.5 0zM57 6a1 1 0 0 1 1-1h10a1 1 0 1 1 0 2H58a1 1 0 0 1-1-1zm12 5a1 1 0 1 0 0 2h16a1 1 0 1 0 0-2H69z"
            ></path>
            <path
              id="wd-graphic-empty-state-window-gray-path-7"
              d="M51.5 2a8.5 8.5 0 0 0-8.5 8.5 1 1 0 1 1-2 0c0-.768.082-1.517.239-2.238A6.003 6.003 0 0 0 37 14a1 1 0 0 1-1 1H20a1 1 0 1 1 0-2h15.062a8.004 8.004 0 0 1 6.918-6.936A10.501 10.501 0 0 1 51.5 0c4.94 0 9.083 3.411 10.202 8.007A7.002 7.002 0 0 1 68.71 13H95a1 1 0 1 1 0 2H67.917a1 1 0 0 1-.986-.835 5.002 5.002 0 0 0-5.85-4.08 1 1 0 0 1-1.173-.838A8.503 8.503 0 0 0 51.5 2zM0 14a1 1 0 0 1 1-1h11a1 1 0 1 1 0 2H1a1 1 0 0 1-1-1zm12-7a1 1 0 1 0 0 2h7a1 1 0 1 0 0-2h-7z"
            ></path>
            <path
              id="wd-graphic-empty-state-window-gray-path-9"
              d="M3 0c.342 0 .496 1.102 1.246 1.852S6 2.659 6 3c0 .34-1.01.494-1.76 1.244S3.433 6 3 6c-.434 0-.512-1.057-1.262-1.807S0 3.373 0 3c0-.374.905-.385 1.69-1.17C2.472 1.047 2.657 0 3 0z"
            ></path>
            <path
              id="wd-graphic-empty-state-window-gray-path-11"
              d="M3 0c.342 0 .496 1.102 1.246 1.852S6 2.659 6 3c0 .34-1.01.494-1.76 1.244S3.433 6 3 6c-.434 0-.512-1.057-1.262-1.807S0 3.373 0 3c0-.374.905-.385 1.69-1.17C2.472 1.047 2.657 0 3 0z"
            ></path>
            <path
              id="wd-graphic-empty-state-window-gray-path-13"
              d="M3 0c.342 0 .496 1.102 1.246 1.852S6 2.659 6 3c0 .34-1.01.494-1.76 1.244S3.433 6 3 6c-.434 0-.512-1.057-1.262-1.807S0 3.373 0 3c0-.374.905-.385 1.69-1.17C2.472 1.047 2.657 0 3 0z"
            ></path>
            <path
              id="wd-graphic-empty-state-window-gray-path-15"
              d="M3 0c.342 0 .496 1.102 1.246 1.852S6 2.659 6 3c0 .34-1.01.494-1.76 1.244S3.433 6 3 6c-.434 0-.512-1.057-1.262-1.807S0 3.373 0 3c0-.374.905-.385 1.69-1.17C2.472 1.047 2.657 0 3 0z"
            ></path>
            <path
              id="wd-graphic-empty-state-window-gray-path-17"
              d="M3 0c.342 0 .496 1.102 1.246 1.852S6 2.659 6 3c0 .34-1.01.494-1.76 1.244S3.433 6 3 6c-.434 0-.512-1.057-1.262-1.807S0 3.373 0 3c0-.374.905-.385 1.69-1.17C2.472 1.047 2.657 0 3 0z"
            ></path>
            <path
              id="wd-graphic-empty-state-window-gray-path-19"
              d="M5 0c.57 0 .827 1.836 2.077 3.086C8.327 4.336 10 4.432 10 5c0 .568-1.684.823-2.934 2.073C5.816 8.323 5.723 10 5 10c-.723 0-.854-1.762-2.104-3.012S0 5.623 0 5s1.508-.642 2.815-1.949S4.43 0 5 0z"
            ></path>
            <circle
              id="wd-graphic-empty-state-window-gray-path-21"
              cx="2"
              cy="2"
              r="2"
            ></circle>
            <circle
              id="wd-graphic-empty-state-window-gray-path-23"
              cx="1.5"
              cy="1.5"
              r="1.5"
            ></circle>
            <circle
              id="wd-graphic-empty-state-window-gray-path-25"
              cx="1.5"
              cy="1.5"
              r="1.5"
            ></circle>
            <circle
              id="wd-graphic-empty-state-window-gray-path-27"
              cx="1"
              cy="1"
              r="1"
            ></circle>
            <circle
              id="wd-graphic-empty-state-window-gray-path-29"
              cx="1"
              cy="1"
              r="1"
            ></circle>
            <circle
              id="wd-graphic-empty-state-window-gray-path-31"
              cx="1"
              cy="1"
              r="1"
            ></circle>
          </defs>
          <g fill="none" fill-rule="evenodd" class="wd-icon-container">
            <g fill-rule="nonzero" transform="translate(8 91)">
              <path
                fill="#000"
                fill-opacity=".04"
                d="M92 18C81.5 1.5 66.5-2 53.5 3c18 1.5 29.948 14.971 31.5 21 3.5-4 6-6 7-6z"
              ></path>
              <use
                fill="#CAD3D9"
                xlink:href="#wd-graphic-empty-state-window-gray-path-1"
              ></use>
            </g>
            <g fill-rule="nonzero" transform="translate(231 52)">
              <path
                fill="#000"
                fill-opacity=".04"
                d="M76 12C73 2.5 62-.833 54 2.667 63 3.77 67 8 70 15c1.5-1.5 3.5-2.5 6-3z"
              ></path>
              <use
                fill="#CAD3D9"
                xlink:href="#wd-graphic-empty-state-window-gray-path-3"
              ></use>
            </g>
            <use
              fill="#E6EBEE"
              fill-rule="nonzero"
              transform="translate(23 38)"
              xlink:href="#wd-graphic-empty-state-window-gray-path-5"
            ></use>
            <use
              fill="#E6EBEE"
              fill-rule="nonzero"
              transform="translate(242 128)"
              xlink:href="#wd-graphic-empty-state-window-gray-path-7"
            ></use>
            <use
              fill="#FFDB63"
              transform="translate(135 38)"
              xlink:href="#wd-graphic-empty-state-window-gray-path-9"
            ></use>
            <use
              fill="#FFDB63"
              transform="translate(257 21)"
              xlink:href="#wd-graphic-empty-state-window-gray-path-11"
            ></use>
            <use
              fill="#FFDB63"
              transform="translate(248 92)"
              xlink:href="#wd-graphic-empty-state-window-gray-path-13"
            ></use>
            <use
              fill="#FFDB63"
              transform="translate(105 89)"
              xlink:href="#wd-graphic-empty-state-window-gray-path-15"
            ></use>
            <use
              fill="#FFDB63"
              transform="translate(171 141)"
              xlink:href="#wd-graphic-empty-state-window-gray-path-17"
            ></use>
            <use
              fill="#FFDB63"
              transform="translate(188 6)"
              xlink:href="#wd-graphic-empty-state-window-gray-path-19"
            ></use>
            <use
              fill="#E6EBEE"
              transform="translate(217 32)"
              xlink:href="#wd-graphic-empty-state-window-gray-path-21"
            ></use>
            <use
              fill="#E6EBEE"
              transform="translate(58 77)"
              xlink:href="#wd-graphic-empty-state-window-gray-path-23"
            ></use>
            <use
              fill="#E6EBEE"
              transform="translate(102 140)"
              xlink:href="#wd-graphic-empty-state-window-gray-path-25"
            ></use>
            <use
              fill="#E6EBEE"
              transform="translate(166 28)"
              xlink:href="#wd-graphic-empty-state-window-gray-path-27"
            ></use>
            <use
              fill="#E6EBEE"
              transform="translate(270 157)"
              xlink:href="#wd-graphic-empty-state-window-gray-path-29"
            ></use>
            <use
              fill="#E6EBEE"
              transform="translate(317 29)"
              xlink:href="#wd-graphic-empty-state-window-gray-path-31"
            ></use>
            <path
              fill="#fff"
              fill-rule="nonzero"
              d="M128 51a2 2 0 0 0-2 2v70a2 2 0 0 0 2 2h104a2 2 0 0 0 2-2V53a2 2 0 0 0-2-2H128z"
            ></path>
            <path
              fill="#dfe2e6"
              d="M230 63h4v60a2 2 0 0 1-2 2h-2V63zm0-12h2a2 2 0 0 1 2 2v8h-4V51z"
            ></path>
            <path
              fill="#7b858f"
              fill-rule="nonzero"
              d="M234 61v-8a2 2 0 0 0-2-2H128a2 2 0 0 0-2 2v8h108zm0 2H126v60a2 2 0 0 0 2 2h104a2 2 0 0 0 2-2V63zM128 49h104a4 4 0 0 1 4 4v70a4 4 0 0 1-4 4H128a4 4 0 0 1-4-4V53a4 4 0 0 1 4-4zm3 9a2 2 0 1 1 0-4 2 2 0 0 1 0 4zm6 0a2 2 0 1 1 0-4 2 2 0 0 1 0 4zm6 0a2 2 0 1 1 0-4 2 2 0 0 1 0 4z"
            ></path>
          </g>
        </svg>