<svg xmlns="http://www.w3.org/2000/svg" width="92" height="92" class="wd-applet wd-applet-meet-executive-team" focusable="false" role="presentation" viewBox="0 0 92 92"><g fill="none" fill-rule="evenodd" class="wd-icon-container"><g fill="#0B77E3" fill-opacity=".2" class="animate-flood"><path d="M46 82c19.882 0 36-16.118 36-36S65.882 10 46 10 10 26.118 10 46s16.118 36 36 36z" class="color-400-alpha-20"></path></g><g class="animate-float-left"><path fill="#005CB9" fill-rule="nonzero" d="M13.361 28A11.981 11.981 0 0 1 8 18.003v-6.006C8 5.37 13.372 0 20 0c6.63 0 12 5.367 12 11.997v6.006c0 4.173-2.13 7.848-5.363 9.997h3.362C35.52 28 40 32.483 40 38v8a2 2 0 0 1-2 2H2a2 2 0 0 1-2-2v-8c0-5.522 4.478-10 10-10h3.361z" class="color-500" transform="translate(8 17)"></path><path fill="#40A0FF" d="M2 38c0-4.418 3.583-8 8-8h20c4.418 0 8 3.59 8 8v8H2v-8z" class="color-300" transform="translate(8 17)"></path><rect width="20" height="26" x="10" y="2" fill="#FFF" class="color-100" rx="10" transform="translate(8 17)"></rect></g><g class="animate-float-right"><path fill="#005CB9" fill-rule="nonzero" d="M13.361 28A11.981 11.981 0 0 1 8 18.003v-6.006C8 5.37 13.372 0 20 0c6.63 0 12 5.367 12 11.997v6.006c0 4.173-2.13 7.848-5.363 9.997h3.362C35.52 28 40 32.483 40 38v8a2 2 0 0 1-2 2H2a2 2 0 0 1-2-2v-8c0-5.522 4.478-10 10-10h3.361z" class="color-500" transform="translate(44 17)"></path><path fill="#40A0FF" d="M2 38c0-4.418 3.583-8 8-8h20c4.418 0 8 3.59 8 8v8H2v-8z" class="color-300" transform="translate(44 17)"></path><rect width="20" height="26" x="10" y="2" fill="#FFF" class="color-100" rx="10" transform="translate(44 17)"></rect></g><g class="animate-sink"><path fill="#005CB9" fill-rule="nonzero" d="M13.361 28A11.981 11.981 0 0 1 8 18.003v-6.006C8 5.37 13.372 0 20 0c6.63 0 12 5.367 12 11.997v6.006c0 4.173-2.13 7.848-5.363 9.997h3.362C35.52 28 40 32.483 40 38v8a2 2 0 0 1-2 2H2a2 2 0 0 1-2-2v-8c0-5.522 4.478-10 10-10h3.361z" class="color-500" transform="translate(26 25)"></path><path fill="#A6D2FF" d="M2 38c0-4.418 3.583-8 8-8h20c4.418 0 8 3.59 8 8v8H2v-8z" class="color-200" transform="translate(26 25)"></path><rect width="20" height="26" x="10" y="2" fill="#FFF" class="color-100" rx="10" transform="translate(26 25)"></rect></g></g></svg>